<svg width="120" height="120" viewBox="0 0 120 120" fill="none" xmlns="http://www.w3.org/2000/svg">
<g clip-path="url(#clip0_61_4)">
<rect width="120" height="120" rx="60" fill="#212023"/>
<path d="M55.3174 76.6172C53.973 78.7591 51.9564 80.6504 49.2676 82.291C46.5788 83.9089 43.1722 84.7178 39.0479 84.7178C33.7158 84.7178 29.432 83.1569 26.1963 80.0352C22.9834 76.9134 21.377 72.4701 21.377 66.7051V51.5293C21.377 45.8099 22.9264 41.3779 26.0254 38.2334C29.1471 35.0889 33.2715 33.5166 38.3984 33.5166C43.9128 33.5166 48.0485 34.8724 50.8057 37.584C53.5628 40.2728 54.9984 44.1351 55.1123 49.1709L55.0439 49.376H45.918C45.8496 46.5732 45.223 44.5339 44.0381 43.2578C42.876 41.959 41.0872 41.3096 38.6719 41.3096C36.3021 41.3096 34.445 42.1527 33.1006 43.8389C31.7562 45.5023 31.084 48.043 31.084 51.4609V66.7051C31.084 70.1914 31.7562 72.7777 33.1006 74.4639C34.4678 76.1273 36.4502 76.959 39.0479 76.959C40.9847 76.959 42.4089 76.6969 43.3203 76.1729C44.2546 75.6488 45.0179 74.874 45.6104 73.8486V64.9277H39.0479V58.0918H55.3174V76.6172Z" fill="#F0F0F0"/>
<path d="M96.4355 66.124C96.4355 68.6989 96.1051 71.0459 95.4443 73.165C94.7835 75.2842 93.8493 77.1185 92.6416 78.668L100.024 86.7686L94.0088 91.8955L86.3525 83.3848C85.236 83.8177 84.0625 84.1481 82.832 84.376C81.6243 84.6038 80.3597 84.7178 79.0381 84.7178C73.7744 84.7178 69.5703 83.0771 66.4258 79.7959C63.2812 76.5146 61.709 71.9574 61.709 66.124V52.1787C61.709 46.3682 63.2812 41.8109 66.4258 38.5068C69.5703 35.18 73.763 33.5166 79.0039 33.5166C84.2448 33.5166 88.4603 35.18 91.6504 38.5068C94.8405 41.8109 96.4355 46.3682 96.4355 52.1787V66.124ZM86.7627 52.1104C86.7627 48.5557 86.1019 45.8783 84.7803 44.0781C83.4587 42.2552 81.5332 41.3438 79.0039 41.3438C76.4518 41.3438 74.5378 42.2438 73.2617 44.0439C71.9857 45.8441 71.3477 48.5329 71.3477 52.1104V66.124C71.3477 69.7243 71.9971 72.4245 73.2959 74.2246C74.5947 76.0247 76.5088 76.9248 79.0381 76.9248C81.5446 76.9248 83.4587 76.0247 84.7803 74.2246C86.1019 72.4245 86.7627 69.7243 86.7627 66.124V52.1104Z" fill="#72BCC8"/>
</g>
<defs>
<clipPath id="clip0_61_4">
<rect width="120" height="120" rx="60" fill="white"/>
</clipPath>
</defs>
</svg>
